<svg data-v-0dd9719b="" version="1.0" xmlns="http://www.w3.org/2000/svg" xmlns:xlink="http://www.w3.org/1999/xlink" width="100%" height="100%" viewBox="0 0 340.000000 250.000000" preserveAspectRatio="xMidYMid meet" color-interpolation-filters="sRGB" style="margin: auto;"> <rect data-v-0dd9719b="" x="0" y="0" width="100%" height="100%" fill="#fff" fill-opacity="1" class="background"></rect> <rect data-v-0dd9719b="" x="0" y="0" width="100%" height="100%" fill="url(#watermark)" fill-opacity="1" class="watermarklayer"></rect> <g data-v-0dd9719b="" fill="#333" class="icon-text-wrapper icon-svg-group iconsvg" transform="translate(63.2449951171875,94.96395683288574)"><g class="iconsvg-imagesvg" transform="translate(0,0)"><g><rect fill="#333" fill-opacity="0" stroke-width="2" x="0" y="0" width="60" height="60.07208650380456" class="image-rect"></rect> <svg x="0" y="0" width="60" height="60.07208650380456" filtersec="colorsb5913912" class="image-svg-svg primary" style="overflow: visible;"><svg xmlns="http://www.w3.org/2000/svg" viewBox="0 -0.00001430726933904225 99.8800048828125 100.00004577636719"><g fill-rule="evenodd"><path d="M10.85 81.18L46.64 87V76.88l-40.3-2.39a49.59 49.59 0 0 0 4.51 6.69zM51.52 100v-8.74l-37.47-6.45A49.85 49.85 0 0 0 49.94 100h1.58zM1.57 62.7l63.7 1.11v10L3.15 67.68a48.89 48.89 0 0 1-1.58-5zM.49 57.48l56.82 3.27V50.54L0 52.53c.08 1.67.25 3.32.49 4.95zM0 47.19L44.45 49V38.39l-43.94 4C.27 44 .11 45.58 0 47.19zM1.62 37.09l32.83-1.35v-10l-30.66 5a49 49 0 0 0-2.17 6.35zM6.32 25.55l35.4-3.08V11.64l-30 6.12a49.44 49.44 0 0 0-5.41 7.79zM49.63 0v9.2L15.26 14A49.84 49.84 0 0 1 49.63 0z" fill="#2491eb"></path><path d="M90 80l-43.36 7V76.88l47.12-2.8A50.6 50.6 0 0 1 90 80zM51.52 100v-8.74l34.33-6.48A49.82 49.82 0 0 1 51.52 100zM96.25 68.86l-31 5v-10l33-1.08a49 49 0 0 1-2 6.13zM99.42 57.18l-42.11 3.57V50.54l42.57 1.71c-.07 1.66-.23 3.31-.46 4.93zM99.88 47.67L44.45 49V38.39l54.81 3.38a49.74 49.74 0 0 1 .62 5.9zM98.19 36.88l-63.74-1.14v-10l62 5.95a48.69 48.69 0 0 1 1.72 5.2zM93.78 26l-52.06-3.53V11.64l47.39 7.29a50.45 50.45 0 0 1 4.67 7zM49.63 0v9.2l35.18 5A49.82 49.82 0 0 0 49.94 0z" fill="#145593"></path></g></svg></svg> <!----></g></g> <g transform="translate(67,4.809793472290039)"><g data-gra="path-name" fill-rule="" class="tp-name iconsvg-namesvg" transform="translate(0,0)"><g transform="scale(1)"><g><path d="M1.54-30.56L1.54-30.56 7.47-30.56Q8.37-28.76 9.23-24.92L9.23-24.92Q9.56-23.36 9.56-22.35L9.56-22.35 9.56-22.3 3.65-22.3Q3.65-23.69 2.04-29.16L2.04-29.16Q1.78-29.93 1.54-30.56ZM12.68-14.17L12.68-30.39 33.75-30.39 33.75-14.17 20.06-14.17 18.65-18.63 18.63-18.63 18.63-14.17 12.68-14.17ZM27.77-25.84L18.63-25.84 18.63-24.37 27.77-24.37 27.77-25.84ZM1.54-20.57L1.54-20.57 7.45-20.57Q7.6-20.39 7.98-19.38L7.98-19.38Q8.77-17.2 9.38-14.04L9.38-14.04Q9.56-12.96 9.56-12.35L9.56-12.35 9.56-12.33 3.65-12.33Q3.65-13.82 2.31-18.48L2.31-18.48Q1.89-19.8 1.54-20.57ZM27.77-20.19L18.63-20.19 18.63-18.72 27.77-18.72 27.77-20.19ZM11.45-0.15L11.45-12.66 34.74-12.66Q34.76-12.63 34.76-12.61L34.76-12.61 34.76-0.15 35.79-0.15 35.79 4.39 10.88 4.39Q9.91 1.27 9.45-0.15L9.45-0.15 11.45-0.15ZM3.65-10.59L9.56-10.59 9.56-10.57Q8.53-6.13 7.69 0.68L7.69 0.68Q7.47 2.57 7.47 3.78L7.47 3.78 7.47 4.13 1.54 4.13 1.54 3.98Q1.54 0.73 2.83-7.03L2.83-7.03Q3.27-9.32 3.65-10.59L3.65-10.59ZM17.71-8.44L16.68-8.44 16.68-0.15 17.71-0.15 17.71-8.44ZM23.62-8.44L22.59-8.44 22.59-0.15 23.62-0.15 23.62-8.44ZM29.53-8.44L28.5-8.44 28.5-0.15 29.53-0.15 29.53-8.44ZM44.08-12.35L44.08-30.78 50.01-30.78 50.01-11.65Q50.01-1.08 46.52 2.4L46.52 2.4Q44.52 4.39 41.46 4.39L41.46 4.39 41.37 4.39 41.37-0.86Q41.88-1.03 42.34-1.71L42.34-1.71Q44.08-4.53 44.08-12.35L44.08-12.35ZM67.06 4L67.06-30.78 73.02-30.78 73.02 4 67.06 4ZM55.57 3.23L55.57-29.97 61.55-29.97 61.55 3.23Q61.55 3.25 61.5 3.25L61.5 3.25 55.61 3.25Q55.57 3.25 55.57 3.23L55.57 3.23ZM50.73-24.21L50.73-24.21 53.81-24.21Q53.81-23.93 54.54-5.47L54.54-5.47 51.48-5.47Q51.44-5.47 51.44-5.52L51.44-5.52Q51.44-5.71 50.73-24.21ZM63.13-5.47L62.4-24.21 65.48-24.21Q66.18-5.84 66.18-5.47L66.18-5.47 63.13-5.47ZM39.9-24.13L39.9-24.13 43.31-24.13 43.31-13.01Q43.31-7.36 41.33-5.91L41.33-5.91Q40.41-5.16 39.05-5.16L39.05-5.16 39.02-5.16 39.02-8.64Q39.42-8.64 39.66-10.31L39.66-10.31Q39.86-11.71 39.86-13.67L39.86-13.67 39.86-24.08Q39.86-24.13 39.9-24.13ZM85.08-23.69L85.08-30.32 91.38-30.32 91.38 4.37 85.08 4.37 85.08-0.4 77.98-0.4 76.57-6.02 85.08-6.02 85.08-18.06 77.98-18.06 76.57-23.69 85.08-23.69ZM96.06 4.35L96.06-30.32 102.37-30.32 102.37-23.69 110.17-23.69 110.17-18.06 102.41-18.06Q102.37-18.06 102.37-18.02L102.37-18.02 102.37-1.25 110.17-1.25 110.17 4.37 110.15 4.37Q105.21 4.37 96.09 4.39L96.09 4.39 96.06 4.35ZM126.52-31.11L126.52-31.11 133.26-31.11Q133.68-30.5 133.97-29.66L133.97-29.66Q134.01-29.64 134.25-28.89L134.25-28.89 148.05-28.89 148.05-23.99 114.87-23.99Q114.83-23.99 114.15-26.43L114.15-26.43Q114.08-26.56 113.42-28.89L113.42-28.89 127.31-28.89 127.31-28.92Q126.87-30.41 126.52-31.11ZM119-23.03L119-23.03 125.75-23.03Q126.1-22.54 126.45-21.58L126.45-21.58Q126.63-21.14 126.72-20.79L126.72-20.79 134.43-20.79Q134.45-20.81 134.78-21.77L134.78-21.77Q134.98-22.26 135.4-23.03L135.4-23.03 142.16-23.03 142.16-23.03Q141.79-22.21 141.37-20.79L141.37-20.79 147.02-20.79 147.02 4.39 140.58 4.39Q139.33-0.2 139.17-0.79L139.17-0.79 139.15-0.79 139.15 2.5 129.42 2.5Q129.33 2.4 129.11 1.52L129.11 1.52Q128.43-0.77 128.17-1.74L128.17-1.74 128.14-1.74 128.14 2.5 122.59 2.5 122.59-6.92Q122.15-6.81 121.79-6.72L121.79-6.72 121.79-11.87Q123.49-12.94 123.49-14.85L123.49-14.85 129.07-14.85 129.07-14.7Q129.07-11.16 126.43-8.88L126.43-8.88 135.35-8.88 135.35-8.88Q134.93-9.16 134.23-10.02L134.23-10.02Q132.69-12.04 132.69-14.79L132.69-14.79 132.69-14.85 138.25-14.85Q138.3-14.85 138.3-14.81L138.3-14.81 138.3-14.68Q138.3-13.03 139.88-11.91L139.88-11.91Q139.94-11.87 139.97-11.87L139.97-11.87 139.97-6.72 139.15-6.92 139.15-0.88 140.71-0.88 140.71-15.89 120.87-15.89 120.87 4.39 114.57 4.39 114.57-20.79 119.82-20.79Q119.38-22.21 119-23.03ZM133.59-4.55L128.14-4.55 128.14-1.82 133.59-1.82 133.59-4.55Z" transform="translate(-1.5399999618530273, 31.110000610351562)"></path></g> <!----> <!----> <!----> <!----> <!----> <!----> <!----></g></g> <g data-gra="path-slogan" fill-rule="" class="tp-slogan iconsvg-slogansvg" fill="#333" transform="translate(10.375007629394531,41.5)"><!----> <!----> <g transform="scale(1, 1)"><g transform="scale(1)"><path d="M5.67-7.13L5.63-7.13L3.66 0L2.44 0L0.19-8.58L1.41-8.58L3.05-1.59L3.09-1.59L5.02-8.58L6.28-8.58L8.20-1.59L8.25-1.59L9.84-8.58L11.11-8.58L8.86 0L7.64 0L5.67-7.13ZM13.50-1.03L18.66-1.03L18.66 0L12.33 0L12.33-8.58L18.56-8.58L18.56-7.59L13.50-7.59L13.50-4.92L18.19-4.92L18.19-3.89L13.50-3.89L13.50-1.03ZM21.56-8.58L25.88-1.64L25.88-8.58L27-8.58L27 0L25.69 0L21.33-6.94L21.28-6.94L21.28 0L20.16 0L20.16-8.58L21.56-8.58ZM29.63-1.03L34.92-1.03L34.92 0L28.17 0L28.17-0.94L33.42-7.59L28.55-7.59L28.55-8.58L34.92-8.58L34.92-7.59L29.63-1.03ZM37.22-5.06L41.72-5.06L41.72-8.58L42.89-8.58L42.89 0L41.72 0L41.72-3.98L37.22-3.98L37.22 0L36.05 0L36.05-8.58L37.22-8.58L37.22-5.06ZM51.47-4.27L51.47-4.27Q51.28-7.64 48.47-7.83L48.47-7.83Q45.61-7.69 45.47-4.27L45.47-4.27Q45.61-0.94 48.47-0.80L48.47-0.80Q51.28-0.98 51.47-4.27ZM52.64-4.27L52.64-4.27Q52.36 0 48.47 0.14L48.47 0.14Q44.53 0 44.25-4.27L44.25-4.27Q44.48-8.72 48.47-8.81L48.47-8.81Q52.36-8.67 52.64-4.27ZM59.67-3.19L59.67-8.58L60.84-8.58L60.84-3.05Q60.70 0.05 57.33 0.14L57.33 0.14Q54.19 0.05 54.05-2.86L54.05-2.86L54.05-8.58L55.22-8.58L55.22-3.19Q55.27-0.84 57.38-0.80L57.38-0.80Q59.67-0.84 59.67-3.19L59.67-3.19ZM69.19-7.64L67.13-7.64L67.13-4.97L69.19-4.97Q71.02-4.92 70.97-6.38L70.97-6.38Q70.97-7.64 69.19-7.64L69.19-7.64ZM69.66 0L65.95 0L65.95-8.58L69.75-8.58Q72.05-8.48 72.14-6.42L72.14-6.42Q72.14-5.16 71.02-4.64L71.02-4.64Q72.61-4.08 72.61-2.53L72.61-2.53Q72.47-0.09 69.66 0L69.66 0ZM69.38-3.98L67.13-3.98L67.13-0.98L69.61-0.98Q71.39-1.03 71.44-2.53L71.44-2.53Q71.44-3.98 69.38-3.98L69.38-3.98ZM75.23-1.03L80.39-1.03L80.39 0L74.06 0L74.06-8.58L80.30-8.58L80.30-7.59L75.23-7.59L75.23-4.92L79.92-4.92L79.92-3.89L75.23-3.89L75.23-1.03ZM82.08-8.58L83.25-8.58L83.25 0L82.08 0L82.08-8.58ZM91.50-6.09L91.50-6.09L90.42-6.09Q90.33-7.73 88.27-7.83L88.27-7.83Q86.34-7.78 86.34-6.33L86.34-6.33Q86.34-5.39 87.38-5.25L87.38-5.25L89.81-4.69Q91.73-4.22 91.73-2.34L91.73-2.34Q91.69 0.05 88.36 0.14L88.36 0.14Q86.53 0.14 85.78-0.61L85.78-0.61Q84.84-1.31 84.89-2.77L84.89-2.77L86.02-2.77Q86.06-0.80 88.36-0.75L88.36-0.75Q90.61-0.80 90.66-2.20L90.66-2.20Q90.84-3.38 88.78-3.75L88.78-3.75L87-4.13Q85.17-4.64 85.17-6.19L85.17-6.19Q85.31-8.72 88.17-8.81L88.17-8.81Q91.41-8.81 91.50-6.09ZM94.36-5.06L98.86-5.06L98.86-8.58L100.03-8.58L100.03 0L98.86 0L98.86-3.98L94.36-3.98L94.36 0L93.19 0L93.19-8.58L94.36-8.58L94.36-5.06ZM107.48 0L106.64-2.48L103.17-2.48L102.28 0L101.11 0L104.34-8.58L105.66-8.58L108.75 0L107.48 0ZM104.91-7.31L103.55-3.52L106.22-3.52L104.95-7.31L104.91-7.31ZM111.19-8.58L115.50-1.64L115.50-8.58L116.63-8.58L116.63 0L115.31 0L110.95-6.94L110.91-6.94L110.91 0L109.78 0L109.78-8.58L111.19-8.58ZM124.83-3.61L122.20-3.61L122.20-4.59L125.95-4.59L125.95 0L125.20 0L124.92-1.08Q123.94 0.09 122.11 0.14L122.11 0.14Q120.38 0.14 119.44-0.75L119.44-0.75Q118.03-2.06 118.08-4.36L118.08-4.36Q118.41-8.63 122.16-8.81L122.16-8.81Q125.34-8.63 125.81-6L125.81-6L124.69-6Q124.22-7.78 122.11-7.83L122.11-7.83Q119.44-7.64 119.30-4.31L119.30-4.31Q119.30-0.75 122.16-0.75L122.16-0.75Q123.19-0.75 123.94-1.31L123.94-1.31Q124.88-2.06 124.83-3.61L124.83-3.61Z" transform="translate(-0.1875, 8.8125)"></path></g></g></g></g></g><defs v-gra="od"></defs></svg>